HIERARCHY
ROOT Hips
{
	OFFSET 0.000000 0.000000 0.000000
	CHANNELS 6 Xposition Yposition Zposition Zrotation Yrotation Xrotation 
	JOINT LHipJoint
	{
		OFFSET 0.000000 0.000000 0.000000
		CHANNELS 3 Zrotation Yrotation Xrotation
		JOINT LeftUpLeg
		{
			OFFSET 1.363060 -1.794630 0.839290
			CHANNELS 3 Zrotation Yrotation Xrotation
			JOINT LeftLeg
			{
				OFFSET 2.448110 -6.726130 0.000000
				CHANNELS 3 Zrotation Yrotation Xrotation
				JOINT LeftFoot
				{
					OFFSET 2.562200 -7.039590 0.000000
					CHANNELS 3 Zrotation Yrotation Xrotation
					JOINT LeftToeBase
					{
						OFFSET 0.157640 -0.433110 2.322550
						CHANNELS 3 Zrotation Yrotation Xrotation
						End Site
						{
							OFFSET 0.000000 0.000000 0.000000
						}
					}
				}
			}
		}
	}
	JOINT RHipJoint
	{
		OFFSET 0.000000 0.000000 0.000000
		CHANNELS 3 Zrotation Yrotation Xrotation
		JOINT RightUpLeg
		{
			OFFSET -1.305520 -1.794630 0.839290
			CHANNELS 3 Zrotation Yrotation Xrotation
			JOINT RightLeg
			{
				OFFSET -2.542530 -6.985550 0.000000
				CHANNELS 3 Zrotation Yrotation Xrotation
				JOINT RightFoot
				{
					OFFSET -2.568260 -7.056230 0.000000
					CHANNELS 3 Zrotation Yrotation Xrotation
					JOINT RightToeBase
					{
						OFFSET -0.164730 -0.452590 2.363150
						CHANNELS 3 Zrotation Yrotation Xrotation
						End Site
						{
							OFFSET 0.000000 0.000000 0.000000
						}
					}
				}
			}
		}
	}
}
MOTION
Frames: 14
Frame Time: 0.008333
-11.855992 15.772235 -0.393822 114.704995 89.528077 141.411086 -11.751955 1.603785 -5.259259 -6.023303 12.640487 -22.717323 -1.247161 3.334672 52.966961 0.463061 1.113553 -8.415341 -0.052800 -0.000000 -76.186800 8.268954 1.468382 -0.999545 13.927665 2.760724 -65.412435 1.728943 -4.814871 53.113500 -0.314968 2.143739 -12.422531 0.015700 0.000000 -20.714000
-11.673462 15.750060 -0.372925 102.807989 89.401504 129.295231 -11.850999 1.616427 -5.211896 -5.754561 12.300803 -22.061832 -1.074584 3.349627 53.486489 0.457892 1.093286 -7.092327 -0.021500 0.000000 -75.718200 8.256650 1.443292 -1.086607 13.706977 2.927156 -64.931403 1.586732 -4.864740 54.574466 -0.457256 1.709666 -13.731017 0.050200 0.000000 -16.294600
-11.492193 15.730499 -0.352647 89.805166 89.260753 116.115437 -11.971350 1.629130 -5.150771 -5.541161 11.893986 -21.537412 -0.900280 3.378518 54.113539 0.473070 1.192044 -5.800073 0.002800 -0.000000 -74.554600 8.216636 1.416938 -1.165624 13.538510 3.132545 -64.426266 1.469046 -4.891482 55.872070 -0.608071 1.258649 -15.103948 0.108200 -0.000001 -12.926300
-11.312502 15.713626 -0.332826 76.347524 89.098623 102.527118 -12.095989 1.651623 -5.078239 -5.387363 11.436228 -21.160049 -0.730793 3.424371 54.848939 0.508317 1.417573 -4.589131 0.027400 0.000000 -72.675100 8.165094 1.404529 -1.233931 13.415095 3.379761 -63.903796 1.371025 -4.895455 57.008498 -0.762989 0.804776 -16.484534 0.189900 0.000000 -10.634400
-11.134713 15.699485 -0.313282 63.743572 88.914562 89.841510 -12.204308 1.686612 -4.998039 -5.290133 10.943016 -20.941767 -0.569547 3.485942 55.693823 0.561724 1.768894 -3.512124 0.059100 -0.000000 -70.056700 8.120904 1.412709 -1.287382 13.329310 3.665953 -63.372371 1.288166 -4.880748 57.988206 -0.917157 0.356834 -17.808200 0.292000 0.000000 -9.455800
-10.959144 15.688061 -0.293906 53.124913 88.717077 79.188869 -12.283452 1.727201 -4.914534 -5.243162 10.428814 -20.886017 -0.416511 3.557296 56.643219 0.630242 2.237391 -2.611413 0.102600 0.000000 -66.794100 8.095727 1.435772 -1.323117 13.271997 3.978068 -62.840878 1.217787 -4.854384 58.822028 -1.066083 -0.076419 -19.032870 0.408700 0.000000 -9.228900
-10.786135 15.679364 -0.274583 44.925841 88.518364 70.999789 -12.334050 1.762513 -4.831254 -5.241751 9.907856 -20.991041 -0.270595 3.631836 57.687608 0.710260 2.807909 -1.918594 0.159100 -0.000000 -63.029900 8.089964 1.462103 -1.340260 13.230718 4.299570 -62.317676 1.157099 -4.822423 59.523957 -1.205946 -0.488765 -20.127930 0.533400 0.000000 -9.738600
-10.615972 15.673412 -0.255221 38.975399 88.327970 65.098529 -12.364827 1.784234 -4.750557 -5.281107 9.395524 -21.252799 -0.131695 3.705527 58.811667 0.798155 3.460090 -1.451780 0.226001 0.000000 -58.938400 8.097556 1.482445 -1.340416 13.195037 4.616174 -61.806984 1.103491 -4.788106 60.110307 -1.334064 -0.875173 -21.079669 0.659600 0.000000 -10.706601
-10.448929 15.670224 -0.235792 34.856164 88.151713 61.061542 -12.385164 1.788199 -4.674419 -5.354404 8.907050 -21.663931 -0.000318 3.776964 59.993780 0.891139 4.173305 -1.206483 0.297900 -0.000000 -54.832600 8.111912 1.492855 -1.327283 13.158103 4.916776 -61.309059 1.054952 -4.752567 60.596753 -1.449091 -1.232896 -21.887608 0.782100 -0.000001 -11.876300
-10.285248 15.669817 -0.216284 32.158539 87.992929 58.473162 -12.401811 1.773232 -4.604065 -5.453317 8.454549 -22.216191 0.122845 3.846290 61.213365 0.986800 4.924829 -1.168496 0.367900 0.000000 -50.925100 8.128302 1.492538 -1.305348 13.118361 5.191414 -60.821179 1.010903 -4.716175 60.996962 -1.551143 -1.560445 -22.566675 0.897700 0.000000 -12.986300
-10.125081 15.672236 -0.196722 30.572360 87.853265 57.016262 -12.418487 1.739399 -4.540985 -5.569856 8.046873 -22.899533 0.237113 3.914364 62.453259 1.082940 5.691641 -1.323720 0.427901 0.000000 -47.338100 8.143792 1.482183 -1.279837 13.077862 5.430008 -60.339558 0.972605 -4.679414 61.322625 -1.641565 -1.855078 -23.149534 1.005800 -0.000000 -13.770400
-9.968510 15.677491 -0.177118 29.861017 87.734400 56.448383 -12.437285 1.686699 -4.485276 -5.695603 7.687375 -23.703608 0.343021 3.981449 63.693149 1.178910 6.459273 -1.631216 0.473100 0.000000 -44.369400 8.156350 1.462380 -1.255523 13.041844 5.623433 -59.860221 0.941055 -4.642583 61.579210 -1.721876 -2.118353 -23.655988 1.106100 0.000000 -14.193900
-9.815646 15.685601 -0.157549 29.917596 87.635839 56.654100 -12.457950 1.615676 -4.438535 -5.828456 7.377758 -24.614336 0.440309 4.048165 64.921633 1.273178 7.210354 -2.079799 0.497199 0.000000 -41.885900 8.165604 1.433899 -1.237984 13.013627 5.759294 -59.377591 0.918454 -4.606700 61.771806 -1.793765 -2.348219 -24.117487 1.199700 -0.000000 -14.198200
-9.666196 15.696419 -0.138206 30.542638 87.561207 57.434899 -12.481920 1.525967 -4.397673 -5.958119 7.114472 -25.632514 0.529934 4.114885 66.129234 1.365562 7.935577 -2.635857 0.498100 0.000000 -39.982700 8.168699 1.395698 -1.228311 13.006808 5.835344 -58.895985 0.906658 -4.571831 61.900633 -1.859757 -2.548020 -24.554191 1.288300 -0.000000 -13.847700
